<svg width="16" height="15" viewBox="0 0 16 15" fill="none" xmlns="http://www.w3.org/2000/svg">
<path d="M15.9093 13.5043C14.7389 11.6133 12.9352 10.2573 10.8303 9.6145C11.8715 9.03523 12.6804 8.15257 13.1329 7.10205C13.5853 6.05153 13.6563 4.89125 13.3349 3.7994C13.0135 2.70754 12.3174 1.74447 11.3537 1.0581C10.3899 0.371729 9.21169 0 7.99999 0C6.78829 0 5.61009 0.371729 4.64633 1.0581C3.68256 1.74447 2.98652 2.70754 2.6651 3.7994C2.34368 4.89125 2.41464 6.05153 2.8671 7.10205C3.31955 8.15257 4.12848 9.03523 5.16965 9.6145C3.06476 10.2566 1.26112 11.6126 0.0907096 13.5043C0.0477887 13.5697 0.0193195 13.6425 0.00698186 13.7184C-0.00535579 13.7942 -0.00131202 13.8716 0.0188746 13.946C0.0390612 14.0204 0.0749817 14.0902 0.124517 14.1514C0.174052 14.2126 0.236198 14.2639 0.307289 14.3023C0.37838 14.3406 0.456975 14.3653 0.538437 14.3748C0.619899 14.3844 0.702579 14.3786 0.781597 14.3577C0.860616 14.3369 0.934372 14.3015 0.998516 14.2536C1.06266 14.2057 1.11589 14.1463 1.15507 14.0789C2.6029 11.7404 5.16197 10.3442 7.99999 10.3442C10.838 10.3442 13.3971 11.7404 14.8449 14.0789C14.8841 14.1463 14.9373 14.2057 15.0015 14.2536C15.0656 14.3015 15.1394 14.3369 15.2184 14.3577C15.2974 14.3786 15.3801 14.3844 15.4616 14.3748C15.543 14.3653 15.6216 14.3406 15.6927 14.3023C15.7638 14.2639 15.8259 14.2126 15.8755 14.1514C15.925 14.0902 15.9609 14.0204 15.9811 13.946C16.0013 13.8716 16.0053 13.7942 15.993 13.7184C15.9807 13.6425 15.9522 13.5697 15.9093 13.5043ZM3.69646 5.17308C3.69646 4.37761 3.94886 3.6 4.42173 2.93858C4.89461 2.27717 5.56673 1.76166 6.3531 1.45725C7.13947 1.15283 8.00477 1.07318 8.83957 1.22837C9.67438 1.38356 10.4412 1.76662 11.0431 2.3291C11.6449 2.89159 12.0548 3.60824 12.2208 4.38843C12.3869 5.16862 12.3017 5.9773 11.9759 6.71223C11.6502 7.44715 11.0986 8.0753 10.3909 8.51724C9.6832 8.95918 8.85115 9.19506 7.99999 9.19506C6.859 9.19392 5.76509 8.76981 4.95828 8.01579C4.15148 7.26177 3.69768 6.23943 3.69646 5.17308Z" fill="#A4A4A4"/>
</svg>
