<svg width="25" height="25" viewBox="0 0 25 25" fill="none" xmlns="http://www.w3.org/2000/svg">
<path fill-rule="evenodd" clip-rule="evenodd" d="M12.5 5.75436L13.2969 4.89818C15.4976 2.5339 19.0655 2.5339 21.2662 4.89818C23.4668 7.26246 23.4668 11.0957 21.2662 13.46L14.0939 21.1657C13.2136 22.1114 11.7864 22.1114 10.9062 21.1657L3.73384 13.46C1.53319 11.0957 1.53319 7.26246 3.73384 4.89818C5.93448 2.5339 9.50244 2.5339 11.7031 4.89818L12.5 5.75436ZM17.7083 5.46871C17.2769 5.46871 16.9271 5.81849 16.9271 6.24996C16.9271 6.68144 17.2769 7.03121 17.7083 7.03121C18.4274 7.03121 19.0104 7.61417 19.0104 8.33329C19.0104 8.76477 19.3602 9.11454 19.7917 9.11454C20.2231 9.11454 20.5729 8.76477 20.5729 8.33329C20.5729 6.75123 19.2904 5.46871 17.7083 5.46871Z" fill="white" fill-opacity="0.8"/>
</svg>
