<svg width="25" height="25" viewBox="0 0 25 25" fill="none" xmlns="http://www.w3.org/2000/svg">
<path d="M22.3284 2.68959C21.8073 2.15481 21.0362 1.95558 20.3171 2.1653L3.54989 7.04118C2.79125 7.25195 2.25353 7.85698 2.10868 8.62559C1.9607 9.40782 2.47758 10.4008 3.15285 10.8161L8.39562 14.0383C8.93333 14.3686 9.62737 14.2858 10.0723 13.837L16.0758 7.79616C16.378 7.48159 16.8782 7.48159 17.1804 7.79616C17.4827 8.10025 17.4827 8.59308 17.1804 8.90765L11.1665 14.9496C10.7205 15.3973 10.6372 16.0946 10.9654 16.6357L14.1688 21.931C14.544 22.5601 15.1901 22.9167 15.8987 22.9167C15.982 22.9167 16.0758 22.9167 16.1592 22.9062C16.972 22.8013 17.6181 22.2456 17.8578 21.4591L22.8286 4.71334C23.0474 4.00031 22.8494 3.22436 22.3284 2.68959Z" fill="white"/>
</svg>
