<svg width="25" height="25" viewBox="0 0 25 25" fill="none" xmlns="http://www.w3.org/2000/svg">
<path d="M6.60739 15.4462C5.7938 16.2598 5.7938 17.5789 6.60739 18.3925C7.42098 19.2061 8.74007 19.2061 9.55366 18.3925L12.4999 15.4463L15.4462 18.3925C16.2598 19.2061 17.5789 19.2061 18.3925 18.3925C19.2061 17.5789 19.2061 16.2598 18.3925 15.4462L15.4462 12.5L18.3925 9.5537C19.2061 8.7401 19.2061 7.42101 18.3925 6.60742C17.5789 5.79383 16.2598 5.79383 15.4462 6.60742L12.4999 9.5537L9.55366 6.60742C8.74007 5.79383 7.42098 5.79383 6.60739 6.60742C5.7938 7.42101 5.7938 8.7401 6.60739 9.5537L9.55366 12.5L6.60739 15.4462Z" fill="white"/>
</svg>
