<svg width="21" height="21" viewBox="0 0 21 21" fill="none" xmlns="http://www.w3.org/2000/svg">
<path d="M0.438801 0.457933C0.719851 0.176726 1.10098 0.0187527 1.49839 0.0187527C1.89579 0.0187527 2.27692 0.176726 2.55797 0.457933L10.4906 8.39743L18.4233 0.457933C18.5615 0.314667 18.7269 0.200394 18.9098 0.12178C19.0926 0.0431668 19.2893 0.00178736 19.4883 5.66356e-05C19.6873 -0.00167409 19.8846 0.0362781 20.0688 0.111699C20.253 0.187121 20.4203 0.2985 20.561 0.439339C20.7018 0.580179 20.813 0.747657 20.8884 0.932001C20.9638 1.11635 21.0017 1.31387 20.9999 1.51303C20.9982 1.7122 20.9569 1.90903 20.8783 2.09204C20.7998 2.27504 20.6856 2.44056 20.5425 2.57893L12.6098 10.5184L20.5425 18.4579C20.8155 18.7408 20.9665 19.1197 20.9631 19.513C20.9597 19.9063 20.8021 20.2825 20.5242 20.5607C20.2463 20.8388 19.8704 20.9965 19.4775 20.9999C19.0845 21.0034 18.7059 20.8522 18.4233 20.5789L10.4906 12.6394L2.55797 20.5789C2.27531 20.8522 1.89674 21.0034 1.50378 20.9999C1.11082 20.9965 0.73493 20.8388 0.457058 20.5607C0.179185 20.2825 0.0215672 19.9063 0.0181526 19.513C0.0147379 19.1197 0.1658 18.7408 0.438801 18.4579L8.37146 10.5184L0.438801 2.57893C0.157837 2.29764 0 1.91618 0 1.51843C0 1.12069 0.157837 0.739224 0.438801 0.457933Z" fill="#0D0D0D"/>
</svg>
