<svg width="25" height="25" viewBox="0 0 25 25" fill="none" xmlns="http://www.w3.org/2000/svg">
<path fill-rule="evenodd" clip-rule="evenodd" d="M8.75655 4.05271L7.29169 6.25H6.25002C3.94884 6.25 2.08336 8.11548 2.08336 10.4167V17.7083C2.08336 20.0095 3.94884 21.875 6.25002 21.875H18.75C21.0512 21.875 22.9167 20.0095 22.9167 17.7083V10.4167C22.9167 8.11548 21.0512 6.25 18.75 6.25H17.7084L16.2435 4.05271C15.8571 3.47313 15.2066 3.125 14.5101 3.125H10.49C9.79342 3.125 9.14294 3.47313 8.75655 4.05271ZM15.625 14.0625C15.625 15.7884 14.2259 17.1875 12.5 17.1875C10.7741 17.1875 9.37502 15.7884 9.37502 14.0625C9.37502 12.3366 10.7741 10.9375 12.5 10.9375C14.2259 10.9375 15.625 12.3366 15.625 14.0625ZM12.5 7.29167C13.0753 7.29167 13.5417 6.8253 13.5417 6.25C13.5417 5.67471 13.0753 5.20834 12.5 5.20834C11.9247 5.20834 11.4584 5.67471 11.4584 6.25C11.4584 6.8253 11.9247 7.29167 12.5 7.29167Z" fill="white"/>
</svg>
