<svg width="20" height="19" viewBox="0 0 20 19" fill="none" xmlns="http://www.w3.org/2000/svg">
<path d="M18.9963 2.25878L19.706 1.60381C19.8943 1.42762 20 1.18866 20 0.939492C20 0.690323 19.8943 0.451359 19.706 0.275171C19.5178 0.0989818 19.2625 0 18.9963 0C18.7301 0 18.4748 0.0989818 18.2866 0.275171L16.8871 1.59446L14.0582 4.24238L7.75057 10.1371C6.717 9.49878 5.4671 9.24234 4.24307 9.41743C3.01903 9.59252 1.90801 10.1867 1.12527 11.0847C0.342538 11.9828 -0.0561759 13.1209 0.00638867 14.2784C0.0689532 15.436 0.588342 16.5306 1.46391 17.3501C2.33949 18.1697 3.5089 18.6558 4.74557 18.7144C5.98223 18.773 7.19809 18.3998 8.15756 17.6671C9.11703 16.9344 9.75179 15.8945 9.93884 14.7488C10.1259 13.6031 9.85193 12.4331 9.17003 11.4657L14.7579 6.22599L16.8771 8.21895C16.9703 8.30558 17.0808 8.37417 17.2023 8.42082C17.3239 8.46746 17.454 8.49125 17.5854 8.49081C17.7167 8.49038 17.8467 8.46573 17.9678 8.41828C18.089 8.37084 18.199 8.30151 18.2916 8.21427C18.3841 8.12703 18.4574 8.02358 18.5072 7.90983C18.5571 7.79609 18.5825 7.67426 18.582 7.55132C18.5815 7.42838 18.5552 7.30673 18.5045 7.19331C18.4538 7.07989 18.3798 6.97693 18.2866 6.89031L16.1674 4.9067L17.5868 3.58742L18.2866 4.24238C18.3791 4.32962 18.4891 4.39895 18.6103 4.44639C18.7314 4.49384 18.8614 4.51849 18.9928 4.51892C19.1241 4.51936 19.2543 4.49557 19.3758 4.44893C19.4973 4.40228 19.6078 4.33369 19.701 4.24706C19.7942 4.16044 19.8683 4.05747 19.919 3.94406C19.9697 3.83064 19.996 3.70899 19.9965 3.58605C19.9969 3.46311 19.9715 3.34128 19.9217 3.22753C19.8719 3.11379 19.7986 3.01034 19.706 2.9231L18.9963 2.25878ZM5.00161 16.8458C4.40849 16.8458 3.82869 16.6811 3.33553 16.3727C2.84238 16.0643 2.458 15.6259 2.23103 15.113C2.00405 14.6001 1.94466 14.0357 2.06037 13.4912C2.17609 12.9467 2.4617 12.4465 2.8811 12.0539C3.3005 11.6614 3.83484 11.394 4.41656 11.2857C4.99829 11.1774 5.60126 11.233 6.14923 11.4455C6.6972 11.6579 7.16555 12.0177 7.49507 12.4793C7.82459 12.9409 8.00047 13.4836 8.00047 14.0388C8.00047 14.7832 7.68452 15.4972 7.12213 16.0236C6.55973 16.55 5.79696 16.8458 5.00161 16.8458Z" fill="#A4A4A4"/>
</svg>
