<svg width="25" height="25" viewBox="0 0 25 25" fill="none" xmlns="http://www.w3.org/2000/svg">
<path fill-rule="evenodd" clip-rule="evenodd" d="M2.08335 12.5157C2.08335 7.02826 6.46876 2.08335 12.5208 2.08335C18.4375 2.08335 22.9167 6.93437 22.9167 12.4844C22.9167 18.9211 17.6667 22.9167 12.5 22.9167C10.7917 22.9167 8.89584 22.4576 7.37501 21.5605C6.84376 21.2371 6.39585 20.9971 5.82293 21.1849L3.71877 21.8108C3.18752 21.9777 2.70835 21.5605 2.8646 20.9971L3.56252 18.6603C3.6771 18.3369 3.65627 17.9926 3.4896 17.7214C2.59377 16.0731 2.08335 14.2683 2.08335 12.5157ZM11.1458 12.5157C11.1458 13.2564 11.7395 13.851 12.4791 13.8615C13.2187 13.8615 13.8124 13.2564 13.8124 12.5261C13.8124 11.7854 13.2187 11.1908 12.4791 11.1908C11.7499 11.1803 11.1458 11.7854 11.1458 12.5157ZM15.9479 12.5262C15.9479 13.2564 16.5416 13.8615 17.2812 13.8615C18.0208 13.8615 18.6145 13.2564 18.6145 12.5262C18.6145 11.7855 18.0208 11.1908 17.2812 11.1908C16.5416 11.1908 15.9479 11.7855 15.9479 12.5262ZM7.67704 13.8616C6.94787 13.8616 6.3437 13.2565 6.3437 12.5262C6.3437 11.7855 6.93745 11.1909 7.67704 11.1909C8.41662 11.1909 9.01037 11.7855 9.01037 12.5262C9.01037 13.2565 8.41662 13.8511 7.67704 13.8616Z" fill="white" fill-opacity="0.8"/>
</svg>
