<svg width="22" height="17" viewBox="0 0 22 17" fill="none" xmlns="http://www.w3.org/2000/svg">
<path d="M4.69264 0.339989C4.59917 0.239933 4.48572 0.158489 4.35886 0.100378C4.23201 0.0422673 4.09426 0.00864482 3.95362 0.00145956C3.81298 -0.00572571 3.67223 0.0136691 3.53954 0.0585199C3.40685 0.103371 3.28485 0.172785 3.18062 0.262741C3.07639 0.352696 2.99199 0.461404 2.93232 0.582562C2.87266 0.70372 2.83891 0.834919 2.83303 0.968556C2.82715 1.10219 2.84926 1.23561 2.89807 1.36107C2.94689 1.48653 3.02144 1.60155 3.11741 1.69945L4.53654 3.18609C1.48098 5.1183 0.154983 7.89112 0.0911225 8.02168C0.0310341 8.15105 0 8.2909 0 8.4323C0 8.5737 0.0310341 8.71354 0.0911225 8.84291C0.12394 8.91198 0.900912 10.5494 2.61806 12.1792C4.91349 14.3565 7.80763 15.5071 11.0007 15.5071C12.5525 15.5153 14.0904 15.2289 15.5241 14.6648L17.306 16.5263C17.4969 16.721 17.7608 16.8364 18.0406 16.8475C18.3204 16.8586 18.5936 16.7645 18.8009 16.5856C19.0081 16.4067 19.1328 16.1575 19.1479 15.8919C19.1629 15.6263 19.0671 15.3658 18.8813 15.1668L4.69264 0.339989ZM11.0007 13.4856C8.37616 13.4856 6.08073 12.5818 4.1791 10.8004C3.43109 10.097 2.78745 9.30021 2.26593 8.43188C2.73336 7.6477 3.93252 5.91343 5.99114 4.70137L13.9817 13.0493C13.0181 13.3415 12.0122 13.4887 11.0007 13.4856ZM21.9102 8.84291C21.8783 8.91114 21.1119 10.5275 19.4267 12.1413C19.3302 12.243 19.213 12.3251 19.0821 12.3825C18.9512 12.4399 18.8094 12.4714 18.6652 12.4752C18.5211 12.4789 18.3777 12.4549 18.2437 12.4044C18.1097 12.3539 17.9878 12.2781 17.8856 12.1816C17.7833 12.0851 17.7028 11.9698 17.6489 11.8429C17.5949 11.7159 17.5687 11.5798 17.5719 11.4429C17.575 11.3061 17.6073 11.1712 17.667 11.0466C17.7267 10.9219 17.8124 10.8101 17.9189 10.7179C18.6268 10.0344 19.2375 9.26584 19.7354 8.43188C19.2142 7.56334 18.5705 6.76647 17.8222 6.06335C15.9197 4.28191 13.6252 3.37813 11.0007 3.37813C10.7035 3.37813 10.4064 3.38992 10.1137 3.41351C9.97266 3.42786 9.83001 3.41529 9.69415 3.37653C9.55829 3.33778 9.43196 3.27363 9.32258 3.18785C9.2132 3.10206 9.12299 2.99638 9.05723 2.87702C8.99148 2.75765 8.95152 2.62701 8.93969 2.49276C8.92787 2.35852 8.94442 2.22338 8.98838 2.0953C9.03234 1.96722 9.10281 1.84877 9.19566 1.74693C9.28851 1.64508 9.40187 1.56189 9.52906 1.50224C9.65625 1.44259 9.79472 1.40769 9.93632 1.39959C10.2849 1.37095 10.6459 1.35663 11.0007 1.35663C14.1937 1.35663 17.0878 2.50804 19.3815 4.68537C21.0978 6.3152 21.8747 7.95345 21.9075 8.02168C21.968 8.15088 21.9995 8.29063 22 8.43203C22.0005 8.57343 21.9699 8.71337 21.9102 8.84291Z" fill="#A4A4A4"/>
</svg>
